<svg width="77" height="60" fill="none" xmlns="http://www.w3.org/2000/svg"><path d="M76.92 43.68c0 4.64-1.6 8.4-4.8 11.28-3.04 2.72-6.88 4.08-11.52 4.08-5.92 0-10.56-1.84-13.92-5.52-3.36-3.84-5.04-8.88-5.04-15.12 0-6.4.96-11.84 2.88-16.32 2.08-4.48 4.48-8.16 7.2-11.04C54.6 8 57.56 5.68 60.6 4.08c3.04-1.76 5.68-3.04 7.92-3.84L76.2 13.2c-3.2 1.28-5.92 3.36-8.16 6.24-2.24 2.72-3.52 5.68-3.84 8.88 3.2 0 6.08 1.44 8.64 4.32 2.72 2.72 4.08 6.4 4.08 11.04zm-41.52 0c0 4.64-1.6 8.4-4.8 11.28-3.04 2.72-6.88 4.08-11.52 4.08-5.92 0-10.56-1.84-13.92-5.52C1.8 49.68.12 44.64.12 38.4c0-6.4.96-11.84 2.88-16.32 2.08-4.48 4.48-8.16 7.2-11.04 2.88-3.04 5.84-5.36 8.88-6.96C22.12 2.32 24.76 1.04 27 .24l7.68 12.96c-3.2 1.28-5.92 3.36-8.16 6.24-2.24 2.72-3.52 5.68-3.84 8.88 3.2 0 6.08 1.44 8.64 4.32 2.72 2.72 4.08 6.4 4.08 11.04z" fill="#F06449"/></svg>